<svg width="248" height="305" viewBox="0 0 248 305" fill="none" xmlns="http://www.w3.org/2000/svg">
<path fill-rule="evenodd" clip-rule="evenodd" d="M139 23H85C83.8954 23 83 23.8954 83 25V77C83 78.1046 83.8954 79 85 79H137C138.105 79 139 79.8954 139 81V133C139 134.105 139.895 135 141 135H193C194.105 135 195 134.105 195 133V79V25C195 23.8954 194.105 23 193 23H139Z" fill="#FFDCDC"/>
<path fill-rule="evenodd" clip-rule="evenodd" d="M82 190L136 190C137.105 190 138 189.105 138 188L138 136C138 134.895 137.105 134 136 134L84 134C82.8954 134 82 133.105 82 132L82 80C82 78.8954 81.1046 78 80 78L28 78C26.8954 78 26 78.8954 26 80L26 134L26 188C26 189.105 26.8954 190 28 190L82 190Z" fill="#FFDCDC"/>
<g filter="url(#filter0_d_1691_194)">
<rect x="37" y="32" width="37.963" height="37.963" rx="1" fill="#88CFDB"/>
<rect x="37" y="87.679" width="37.963" height="37.963" rx="1" fill="#EDEEED"/>
<rect x="37" y="143.358" width="37.963" height="37.963" rx="1" fill="#EDEEED"/>
<rect x="37" y="199.037" width="37.963" height="37.963" rx="1" fill="#EDEEED"/>
<rect x="92.679" y="32" width="37.963" height="37.963" rx="1" fill="#C5EAE5"/>
<rect x="92.679" y="87.679" width="37.963" height="37.963" rx="1" fill="#93ADE5"/>
<rect x="92.679" y="143.358" width="37.963" height="37.963" rx="1" fill="#EDEEED"/>
<rect x="92.679" y="199.037" width="37.963" height="37.963" rx="1" fill="#A6E6DE"/>
<rect x="148.358" y="32" width="37.963" height="37.963" rx="1" fill="#EDEEED"/>
<rect x="148.358" y="87.679" width="37.963" height="37.963" rx="1" fill="#EDEEED"/>
<rect x="148.358" y="143.358" width="37.963" height="37.963" rx="1" fill="#A391F0"/>
<rect x="148.358" y="199.037" width="37.963" height="37.963" rx="1" fill="#EDEEED"/>
<rect x="204.037" y="32" width="37.963" height="37.963" rx="1" fill="#EDEEED"/>
<rect x="204.037" y="87.679" width="37.963" height="37.963" rx="1" fill="#CAEAE6"/>
<rect x="204.037" y="143.358" width="37.963" height="37.963" rx="1" fill="#EDEEED"/>
<rect x="204.037" y="199.037" width="37.963" height="37.963" rx="1" fill="#A3E6DD"/>
</g>
<rect x="36" y="273" width="206" height="10" fill="url(#paint0_linear_1691_194)"/>
<path d="M39.9061 262.756H39.9661L41.6221 256.6H43.3261L40.8061 265H38.9341L36.3421 256.6H38.1781L39.9061 262.756ZM44.5094 259.408C44.8294 259.264 45.1974 259.14 45.6134 259.036C46.0374 258.932 46.5374 258.88 47.1134 258.88C47.5294 258.88 47.8814 258.932 48.1694 259.036C48.4654 259.132 48.7014 259.272 48.8774 259.456C49.0614 259.64 49.1934 259.86 49.2734 260.116C49.3534 260.372 49.3934 260.66 49.3934 260.98C49.3934 261.388 49.3774 261.736 49.3454 262.024C49.3214 262.312 49.3094 262.568 49.3094 262.792C49.3094 262.96 49.3174 263.148 49.3334 263.356C49.3494 263.468 49.3614 263.576 49.3694 263.68H50.1494V265H48.1574L48.0014 264.184H47.9414C47.7814 264.432 47.5534 264.648 47.2574 264.832C46.9614 265.008 46.5614 265.096 46.0574 265.096C45.4574 265.096 44.9814 264.936 44.6294 264.616C44.2774 264.296 44.1014 263.872 44.1014 263.344C44.1014 263.008 44.1614 262.72 44.2814 262.48C44.4094 262.232 44.5894 262.032 44.8214 261.88C45.0614 261.72 45.3454 261.604 45.6734 261.532C46.0094 261.452 46.3814 261.412 46.7894 261.412C46.9334 261.412 47.0854 261.42 47.2454 261.436C47.4054 261.452 47.6014 261.468 47.8334 261.484C47.8494 261.404 47.8574 261.324 47.8574 261.244V261.016C47.8574 260.712 47.7694 260.496 47.5934 260.368C47.4174 260.232 47.1574 260.164 46.8134 260.164C46.4054 260.164 46.0374 260.216 45.7094 260.32C45.3814 260.424 45.1054 260.528 44.8814 260.632L44.5094 259.408ZM46.5614 263.812C46.9454 263.812 47.2334 263.744 47.4254 263.608C47.6174 263.464 47.7574 263.312 47.8454 263.152V262.432C47.7654 262.416 47.6454 262.4 47.4854 262.384C47.3254 262.36 47.1534 262.348 46.9694 262.348C46.8174 262.348 46.6654 262.364 46.5134 262.396C46.3614 262.42 46.2254 262.464 46.1054 262.528C45.9854 262.584 45.8894 262.66 45.8174 262.756C45.7454 262.852 45.7094 262.968 45.7094 263.104C45.7094 263.328 45.7734 263.504 45.9014 263.632C46.0374 263.752 46.2574 263.812 46.5614 263.812ZM51.6688 256.6H54.2248V262.144C54.2248 262.76 54.3008 263.188 54.4528 263.428C54.6048 263.668 54.8488 263.788 55.1848 263.788C55.4328 263.788 55.6368 263.764 55.7968 263.716C55.9568 263.66 56.1168 263.584 56.2768 263.488L56.8648 264.568C56.7288 264.656 56.5928 264.74 56.4568 264.82C56.3208 264.892 56.1768 264.952 56.0248 265C55.8728 265.056 55.7048 265.096 55.5208 265.12C55.3448 265.152 55.1448 265.168 54.9208 265.168C54.1688 265.168 53.6048 264.976 53.2288 264.592C52.8528 264.208 52.6648 263.664 52.6648 262.96V257.92H51.6688V256.6ZM61.7801 259H64.0121V263.176C64.0121 263.344 64.0121 263.512 64.0121 263.68H64.9241V265H63.0281L62.7521 264.112H62.7041C62.5201 264.416 62.2441 264.668 61.8761 264.868C61.5081 265.068 61.1001 265.168 60.6521 265.168C60.3481 265.168 60.0681 265.128 59.8121 265.048C59.5641 264.968 59.3521 264.836 59.1761 264.652C59.0001 264.468 58.8641 264.22 58.7681 263.908C58.6721 263.596 58.6241 263.204 58.6241 262.732V260.32H57.9401V259H60.1841V262.408C60.1841 262.896 60.2601 263.248 60.4121 263.464C60.5721 263.68 60.8201 263.788 61.1561 263.788C61.4521 263.788 61.7161 263.7 61.9481 263.524C62.1881 263.348 62.3561 263.132 62.4521 262.876V260.32H61.7801V259ZM71.4234 264.364C71.3194 264.46 71.1834 264.556 71.0154 264.652C70.8554 264.74 70.6634 264.824 70.4394 264.904C70.2234 264.984 69.9834 265.048 69.7194 265.096C69.4554 265.144 69.1754 265.168 68.8794 265.168C68.3674 265.168 67.9074 265.096 67.4994 264.952C67.0994 264.808 66.7594 264.6 66.4794 264.328C66.1994 264.048 65.9834 263.716 65.8314 263.332C65.6874 262.94 65.6154 262.496 65.6154 262C65.6154 261.472 65.6994 261.012 65.8674 260.62C66.0354 260.22 66.2634 259.888 66.5514 259.624C66.8474 259.36 67.1914 259.164 67.5834 259.036C67.9754 258.9 68.3994 258.832 68.8554 258.832C69.1594 258.832 69.4714 258.872 69.7914 258.952C70.1194 259.032 70.4194 259.172 70.6914 259.372C70.9634 259.564 71.1834 259.824 71.3514 260.152C71.5274 260.48 71.6154 260.896 71.6154 261.4C71.6154 261.744 71.5754 262.116 71.4954 262.516H67.1754C67.1834 262.772 67.2354 262.988 67.3314 263.164C67.4354 263.34 67.5674 263.484 67.7274 263.596C67.8954 263.708 68.0834 263.792 68.2914 263.848C68.5074 263.896 68.7354 263.92 68.9754 263.92C69.4554 263.92 69.8474 263.864 70.1514 263.752C70.4634 263.64 70.7154 263.504 70.9074 263.344L71.4234 264.364ZM68.8314 260.08C68.6234 260.08 68.4274 260.108 68.2434 260.164C68.0594 260.22 67.8914 260.304 67.7394 260.416C67.5954 260.52 67.4754 260.652 67.3794 260.812C67.2834 260.972 67.2274 261.152 67.2114 261.352H70.1634C70.1634 260.96 70.0514 260.652 69.8274 260.428C69.6114 260.196 69.2794 260.08 68.8314 260.08ZM92.8954 258.078C94.1281 259.428 95.2193 260.302 96.1689 260.702V261.077C95.6358 261.31 95.1194 261.627 94.6196 262.026C94.1365 262.426 93.5617 263.001 92.8954 263.751H92.2707C92.7704 262.701 93.2952 261.893 93.8449 261.327H81.2257V260.502H93.8449C93.4451 260.019 93.1619 259.652 92.9953 259.403C92.8454 259.136 92.6122 258.695 92.2956 258.078H92.8954Z" fill="black" fill-opacity="0.8"/>
<path d="M33.418 298.658C33.418 297.99 33.4877 297.407 33.627 296.909C33.7663 296.403 33.9607 295.985 34.21 295.655C34.4667 295.325 34.771 295.079 35.123 294.918C35.475 294.749 35.8673 294.665 36.3 294.665C37.224 294.665 37.9353 294.991 38.434 295.644C38.9327 296.289 39.182 297.294 39.182 298.658C39.182 299.332 39.1123 299.923 38.973 300.429C38.8337 300.927 38.6357 301.345 38.379 301.683C38.1297 302.013 37.8253 302.262 37.466 302.431C37.114 302.592 36.7217 302.673 36.289 302.673C35.3577 302.673 34.6463 302.332 34.155 301.65C33.6637 300.96 33.418 299.963 33.418 298.658ZM37.774 298.658C37.774 298.54 37.7703 298.43 37.763 298.328C37.763 298.218 37.7593 298.111 37.752 298.009L35.057 300.462C35.2843 301.129 35.6987 301.463 36.3 301.463C36.7693 301.463 37.1323 301.239 37.389 300.792C37.6457 300.344 37.774 299.633 37.774 298.658ZM34.826 298.658C34.826 298.768 34.826 298.874 34.826 298.977C34.8333 299.072 34.8407 299.171 34.848 299.274L37.532 296.821C37.312 296.19 36.8977 295.875 36.289 295.875C35.8197 295.875 35.4567 296.102 35.2 296.557C34.9507 297.004 34.826 297.704 34.826 298.658Z" fill="black" fill-opacity="0.8"/>
<path d="M37.0422 282.471V288.938" stroke="black" stroke-opacity="0.5" stroke-width="1.61691"/>
<path d="M5.42 178.516L4.28 178.396L4.28 178.456L5.312 179.032L7.364 180.256L7.364 180.556L5.3 181.84L4.28 182.392L4.28 182.452L5.408 182.308L11 182.308L11 183.28L2.6 183.28L2.6 182.356L5.792 180.364L5.792 180.34L2.6 178.42L2.6 177.52L11 177.52L11 178.516L5.42 178.516ZM11 175.545L10.196 175.545L10.196 173.457L5.804 173.457L5.804 175.545L5 175.545L5 172.497L10.196 172.497L10.196 170.457L11 170.457L11 175.545ZM3.296 173.781C3.08 173.781 2.896 173.709 2.744 173.565C2.584 173.421 2.504 173.237 2.504 173.013C2.504 172.781 2.584 172.589 2.744 172.437C2.896 172.277 3.08 172.197 3.296 172.197C3.504 172.197 3.68 172.277 3.824 172.437C3.968 172.589 4.04 172.781 4.04 173.013C4.04 173.237 3.968 173.421 3.824 173.565C3.68 173.709 3.504 173.781 3.296 173.781ZM9.38 164.353C9.124 164.353 8.928 164.453 8.792 164.653C8.648 164.853 8.536 165.101 8.456 165.397C8.368 165.693 8.288 166.017 8.216 166.369C8.144 166.713 8.048 167.033 7.928 167.329C7.808 167.625 7.648 167.873 7.448 168.073C7.24 168.273 6.952 168.373 6.584 168.373C6.28 168.373 6.02 168.309 5.804 168.181C5.588 168.045 5.412 167.869 5.276 167.653C5.132 167.437 5.028 167.185 4.964 166.897C4.892 166.609 4.856 166.309 4.856 165.997C4.856 165.437 4.928 164.957 5.072 164.557C5.208 164.149 5.352 163.825 5.504 163.585L6.26 163.969C6.116 164.233 5.98 164.521 5.852 164.833C5.716 165.137 5.648 165.521 5.648 165.985C5.648 166.161 5.668 166.337 5.708 166.513C5.74 166.681 5.792 166.837 5.864 166.981C5.936 167.117 6.032 167.229 6.152 167.317C6.264 167.397 6.404 167.437 6.572 167.437C6.78 167.437 6.94 167.337 7.052 167.137C7.164 166.937 7.26 166.689 7.34 166.393C7.412 166.097 7.484 165.777 7.556 165.433C7.62 165.081 7.716 164.757 7.844 164.461C7.972 164.165 8.144 163.917 8.36 163.717C8.576 163.517 8.868 163.417 9.236 163.417C9.788 163.417 10.244 163.637 10.604 164.077C10.964 164.509 11.144 165.161 11.144 166.033C11.144 166.297 11.12 166.557 11.072 166.813C11.024 167.069 10.96 167.309 10.88 167.533C10.8 167.757 10.712 167.961 10.616 168.145C10.512 168.329 10.408 168.481 10.304 168.601L9.524 168.121C9.62 168.025 9.72 167.897 9.824 167.737C9.92 167.577 10.008 167.401 10.088 167.209C10.168 167.017 10.232 166.813 10.28 166.597C10.328 166.373 10.352 166.149 10.352 165.925C10.352 165.709 10.336 165.509 10.304 165.325C10.264 165.133 10.208 164.965 10.136 164.821C10.056 164.677 9.956 164.565 9.836 164.485C9.708 164.397 9.556 164.353 9.38 164.353ZM5.924 157.146C5.86 157.33 5.808 157.53 5.768 157.746C5.72 157.954 5.696 158.162 5.696 158.37C5.696 159.154 5.88 159.738 6.248 160.122C6.616 160.506 7.2 160.698 8 160.698C8.352 160.698 8.668 160.642 8.948 160.53C9.22 160.418 9.452 160.258 9.644 160.05C9.836 159.842 9.984 159.594 10.088 159.306C10.192 159.01 10.244 158.686 10.244 158.334C10.244 157.958 10.18 157.594 10.052 157.242C9.924 156.882 9.756 156.582 9.548 156.342L10.244 155.922C10.34 156.034 10.44 156.174 10.544 156.342C10.648 156.51 10.748 156.706 10.844 156.93C10.932 157.146 11.004 157.39 11.06 157.662C11.116 157.926 11.144 158.214 11.144 158.526C11.144 159.046 11.072 159.506 10.928 159.906C10.776 160.298 10.564 160.626 10.292 160.89C10.012 161.154 9.68 161.354 9.296 161.49C8.904 161.626 8.472 161.694 8 161.694C7.496 161.694 7.048 161.626 6.656 161.49C6.264 161.346 5.936 161.142 5.672 160.878C5.408 160.614 5.208 160.294 5.072 159.918C4.928 159.542 4.856 159.122 4.856 158.658C4.856 158.066 4.908 157.586 5.012 157.218C5.116 156.842 5.232 156.526 5.36 156.27L5.396 156.282L7.064 156.282L7.064 157.146L5.924 157.146ZM2.6 153.791L2.6 151.799L8.984 151.799C9.472 151.799 9.816 151.719 10.016 151.559C10.216 151.391 10.316 151.147 10.316 150.827C10.316 150.603 10.276 150.391 10.196 150.191C10.116 149.983 9.98 149.755 9.788 149.507L10.448 149.075C10.56 149.203 10.66 149.343 10.748 149.495C10.836 149.647 10.912 149.803 10.976 149.963C11.032 150.123 11.076 150.283 11.108 150.443C11.14 150.603 11.156 150.751 11.156 150.887C11.156 151.183 11.116 151.447 11.036 151.679C10.964 151.911 10.844 152.107 10.676 152.267C10.508 152.419 10.288 152.535 10.016 152.615C9.736 152.695 9.392 152.735 8.984 152.735L3.404 152.735L3.404 153.791L2.6 153.791ZM5.468 146.727C5.268 146.383 5.124 145.995 5.036 145.563C4.948 145.131 4.904 144.707 4.904 144.291C4.904 143.883 4.968 143.551 5.096 143.295C5.224 143.031 5.392 142.827 5.6 142.683C5.8 142.531 6.032 142.431 6.296 142.383C6.552 142.327 6.812 142.299 7.076 142.299C7.38 142.299 7.704 142.307 8.048 142.323C8.392 142.339 8.736 142.351 9.08 142.359C9.48 142.359 9.86 142.335 10.22 142.287L10.22 141.483L11 141.483L11 143.079L10.1 143.187L10.1 143.247C10.172 143.295 10.264 143.367 10.376 143.463C10.488 143.559 10.6 143.687 10.712 143.847C10.816 143.999 10.908 144.187 10.988 144.411C11.068 144.635 11.108 144.899 11.108 145.203C11.108 145.795 10.956 146.263 10.652 146.607C10.348 146.951 9.932 147.123 9.404 147.123C8.996 147.123 8.656 147.035 8.384 146.859C8.112 146.675 7.904 146.415 7.76 146.079C7.616 145.743 7.532 145.339 7.508 144.867C7.484 144.387 7.516 143.851 7.604 143.259C7.236 143.219 6.932 143.215 6.692 143.247C6.444 143.271 6.248 143.335 6.104 143.439C5.96 143.535 5.86 143.675 5.804 143.859C5.74 144.035 5.708 144.255 5.708 144.519C5.708 144.879 5.76 145.223 5.864 145.551C5.96 145.879 6.06 146.171 6.164 146.427L5.468 146.727ZM10.304 144.963C10.304 144.739 10.268 144.531 10.196 144.339C10.124 144.147 10.032 143.979 9.92 143.835C9.808 143.691 9.688 143.571 9.56 143.475C9.424 143.379 9.296 143.307 9.176 143.259L8.336 143.259C8.264 143.675 8.228 144.059 8.228 144.411C8.228 144.763 8.268 145.067 8.348 145.323C8.42 145.579 8.536 145.779 8.696 145.923C8.856 146.067 9.064 146.139 9.32 146.139C9.584 146.139 9.816 146.051 10.016 145.875C10.208 145.691 10.304 145.387 10.304 144.963ZM9.38 135.572C9.124 135.572 8.928 135.672 8.792 135.872C8.648 136.072 8.536 136.32 8.456 136.616C8.368 136.912 8.288 137.236 8.216 137.588C8.144 137.932 8.048 138.252 7.928 138.548C7.808 138.844 7.648 139.092 7.448 139.292C7.24 139.492 6.952 139.592 6.584 139.592C6.28 139.592 6.02 139.528 5.804 139.4C5.588 139.264 5.412 139.088 5.276 138.872C5.132 138.656 5.028 138.404 4.964 138.116C4.892 137.828 4.856 137.528 4.856 137.216C4.856 136.656 4.928 136.176 5.072 135.776C5.208 135.368 5.352 135.044 5.504 134.804L6.26 135.188C6.116 135.452 5.98 135.74 5.852 136.052C5.716 136.356 5.648 136.74 5.648 137.204C5.648 137.38 5.668 137.556 5.708 137.732C5.74 137.9 5.792 138.056 5.864 138.2C5.936 138.336 6.032 138.448 6.152 138.536C6.264 138.616 6.404 138.656 6.572 138.656C6.78 138.656 6.94 138.556 7.052 138.356C7.164 138.156 7.26 137.908 7.34 137.612C7.412 137.316 7.484 136.996 7.556 136.652C7.62 136.3 7.716 135.976 7.844 135.68C7.972 135.384 8.144 135.136 8.36 134.936C8.576 134.736 8.868 134.636 9.236 134.636C9.788 134.636 10.244 134.856 10.604 135.296C10.964 135.728 11.144 136.38 11.144 137.252C11.144 137.516 11.12 137.776 11.072 138.032C11.024 138.288 10.96 138.528 10.88 138.752C10.8 138.976 10.712 139.18 10.616 139.364C10.512 139.548 10.408 139.7 10.304 139.82L9.524 139.34C9.62 139.244 9.72 139.116 9.824 138.956C9.92 138.796 10.008 138.62 10.088 138.428C10.168 138.236 10.232 138.032 10.28 137.816C10.328 137.592 10.352 137.368 10.352 137.144C10.352 136.928 10.336 136.728 10.304 136.544C10.264 136.352 10.208 136.184 10.136 136.04C10.056 135.896 9.956 135.784 9.836 135.704C9.708 135.616 9.556 135.572 9.38 135.572ZM9.38 128.377C9.124 128.377 8.928 128.477 8.792 128.677C8.648 128.877 8.536 129.125 8.456 129.421C8.368 129.717 8.288 130.041 8.216 130.393C8.144 130.737 8.048 131.057 7.928 131.353C7.808 131.649 7.648 131.897 7.448 132.097C7.24 132.297 6.952 132.397 6.584 132.397C6.28 132.397 6.02 132.333 5.804 132.205C5.588 132.069 5.412 131.893 5.276 131.677C5.132 131.461 5.028 131.209 4.964 130.921C4.892 130.633 4.856 130.333 4.856 130.021C4.856 129.461 4.928 128.981 5.072 128.581C5.208 128.173 5.352 127.849 5.504 127.609L6.26 127.993C6.116 128.257 5.98 128.545 5.852 128.857C5.716 129.161 5.648 129.545 5.648 130.009C5.648 130.185 5.668 130.361 5.708 130.537C5.74 130.705 5.792 130.861 5.864 131.005C5.936 131.141 6.032 131.253 6.152 131.341C6.264 131.421 6.404 131.461 6.572 131.461C6.78 131.461 6.94 131.361 7.052 131.161C7.164 130.961 7.26 130.713 7.34 130.417C7.412 130.121 7.484 129.801 7.556 129.457C7.62 129.105 7.716 128.781 7.844 128.485C7.972 128.189 8.144 127.941 8.36 127.741C8.576 127.541 8.868 127.441 9.236 127.441C9.788 127.441 10.244 127.661 10.604 128.101C10.964 128.533 11.144 129.185 11.144 130.057C11.144 130.321 11.12 130.581 11.072 130.837C11.024 131.093 10.96 131.333 10.88 131.557C10.8 131.781 10.712 131.985 10.616 132.169C10.512 132.353 10.408 132.505 10.304 132.625L9.524 132.145C9.62 132.049 9.72 131.921 9.824 131.761C9.92 131.601 10.008 131.425 10.088 131.233C10.168 131.041 10.232 130.837 10.28 130.621C10.328 130.397 10.352 130.173 10.352 129.949C10.352 129.733 10.336 129.533 10.304 129.349C10.264 129.157 10.208 128.989 10.136 128.845C10.056 128.701 9.956 128.589 9.836 128.509C9.708 128.421 9.556 128.377 9.38 128.377ZM11 125.177L10.196 125.177L10.196 123.089L5.804 123.089L5.804 125.177L5 125.177L5 122.129L10.196 122.129L10.196 120.089L11 120.089L11 125.177ZM3.296 123.413C3.08 123.413 2.896 123.341 2.744 123.197C2.584 123.053 2.504 122.869 2.504 122.645C2.504 122.413 2.584 122.221 2.744 122.069C2.896 121.909 3.08 121.829 3.296 121.829C3.504 121.829 3.68 121.909 3.824 122.069C3.968 122.221 4.04 122.413 4.04 122.645C4.04 122.869 3.968 123.053 3.824 123.197C3.68 123.341 3.504 123.413 3.296 123.413ZM11 118.186L10.196 118.186L10.196 116.758L5.804 116.758L5.804 118.186L5 118.186L5 116.758L4.664 116.758C3.912 116.758 3.368 116.562 3.032 116.17C2.696 115.778 2.528 115.218 2.528 114.49C2.528 114.226 2.544 113.99 2.576 113.782C2.608 113.574 2.672 113.35 2.768 113.11L3.548 113.326C3.46 113.534 3.404 113.734 3.38 113.926C3.348 114.118 3.332 114.294 3.332 114.454C3.332 114.982 3.464 115.342 3.728 115.534C3.984 115.726 4.408 115.822 5 115.822L5 113.338L5.804 113.338L5.804 115.822L10.196 115.822L10.196 113.338L11 113.338L11 118.186ZM11 110.787L10.196 110.787L10.196 108.699L5.804 108.699L5.804 110.787L5 110.787L5 107.739L10.196 107.739L10.196 105.699L11 105.699L11 110.787ZM3.296 109.023C3.08 109.023 2.896 108.951 2.744 108.807C2.584 108.663 2.504 108.479 2.504 108.255C2.504 108.023 2.584 107.831 2.744 107.679C2.896 107.519 3.08 107.439 3.296 107.439C3.504 107.439 3.68 107.519 3.824 107.679C3.968 107.831 4.04 108.023 4.04 108.255C4.04 108.479 3.968 108.663 3.824 108.807C3.68 108.951 3.504 109.023 3.296 109.023ZM10.244 98.5036C10.372 98.6476 10.492 98.8196 10.604 99.0196C10.716 99.2116 10.812 99.4236 10.892 99.6556C10.972 99.8876 11.032 100.132 11.072 100.388C11.12 100.636 11.144 100.888 11.144 101.144C11.144 101.624 11.072 102.048 10.928 102.416C10.776 102.784 10.564 103.092 10.292 103.34C10.012 103.588 9.68 103.776 9.296 103.904C8.912 104.032 8.48 104.096 8 104.096C7.496 104.096 7.048 104.028 6.656 103.892C6.264 103.748 5.936 103.544 5.672 103.28C5.408 103.016 5.208 102.696 5.072 102.32C4.928 101.944 4.856 101.524 4.856 101.06C4.856 100.724 4.9 100.392 4.988 100.064C5.076 99.7356 5.244 99.4476 5.492 99.1996C5.732 98.9436 6.068 98.7476 6.5 98.6116C6.924 98.4756 7.476 98.4276 8.156 98.4676L8.156 103.112C8.876 103.112 9.416 102.92 9.776 102.536C10.128 102.144 10.304 101.624 10.304 100.976C10.304 100.76 10.28 100.548 10.232 100.34C10.176 100.124 10.112 99.9196 10.04 99.7276C9.968 99.5356 9.888 99.3676 9.8 99.2236C9.712 99.0716 9.632 98.9556 9.56 98.8756L10.244 98.5036ZM5.648 101.036C5.648 101.3 5.676 101.552 5.732 101.792C5.788 102.024 5.884 102.232 6.02 102.416C6.148 102.592 6.32 102.74 6.536 102.86C6.744 102.972 7.004 103.044 7.316 103.076L7.316 99.3436C6.788 99.3836 6.38 99.5556 6.092 99.8596C5.796 100.156 5.648 100.548 5.648 101.036ZM2.6 93.4682L2.6 91.5242L8.948 91.5242C9.02 91.5242 9.112 91.5202 9.224 91.5122C9.328 91.5042 9.44 91.4962 9.56 91.4882C9.68 91.4722 9.8 91.4562 9.92 91.4402C10.032 91.4242 10.132 91.4082 10.22 91.3922L10.22 90.5882L11 90.5882L11 92.1842L10.076 92.3042L10.076 92.3522C10.38 92.5282 10.636 92.7922 10.844 93.1442C11.044 93.4882 11.144 93.8882 11.144 94.3442C11.144 95.2482 10.892 95.9162 10.388 96.3482C9.876 96.7722 9.084 96.9842 8.012 96.9842C7.508 96.9842 7.064 96.9122 6.68 96.7682C6.288 96.6242 5.964 96.4202 5.708 96.1562C5.444 95.8842 5.244 95.5602 5.108 95.1842C4.972 94.8082 4.904 94.3882 4.904 93.9242C4.904 93.7562 4.908 93.6082 4.916 93.4802C4.924 93.3442 4.936 93.2202 4.952 93.1082C4.968 92.9962 4.992 92.8922 5.024 92.7962C5.048 92.6922 5.076 92.5802 5.108 92.4602L3.404 92.4602L3.404 93.4682L2.6 93.4682ZM10.34 94.1882C10.34 93.7002 10.216 93.3162 9.968 93.0362C9.712 92.7562 9.332 92.5642 8.828 92.4602L6.044 92.4602C5.924 92.6362 5.836 92.8362 5.78 93.0602C5.724 93.2762 5.696 93.5642 5.696 93.9242C5.696 94.5642 5.884 95.0682 6.26 95.4362C6.628 95.8042 7.212 95.9882 8.012 95.9882C8.34 95.9882 8.648 95.9602 8.936 95.9042C9.216 95.8402 9.46 95.7402 9.668 95.6042C9.876 95.4602 10.04 95.2722 10.16 95.0402C10.28 94.8082 10.34 94.5242 10.34 94.1882Z" fill="#F21A1A"/>
<path d="M98.484 4.42L98.604 3.28H98.544L97.968 4.312L96.744 6.364H96.444L95.16 4.3L94.608 3.28H94.548L94.692 4.408V10H93.72V1.6H94.644L96.636 4.792H96.66L98.58 1.6L99.48 1.6V10L98.484 10V4.42ZM101.455 10V9.196H103.543V4.804H101.455V4H104.503V9.196H106.543V10H101.455ZM103.219 2.296C103.219 2.08 103.291 1.896 103.435 1.744C103.579 1.584 103.763 1.504 103.987 1.504C104.219 1.504 104.411 1.584 104.563 1.744C104.723 1.896 104.803 2.08 104.803 2.296C104.803 2.504 104.723 2.68 104.563 2.824C104.411 2.968 104.219 3.04 103.987 3.04C103.763 3.04 103.579 2.968 103.435 2.824C103.291 2.68 103.219 2.504 103.219 2.296ZM112.647 8.38C112.647 8.124 112.547 7.928 112.347 7.792C112.147 7.648 111.899 7.536 111.603 7.456C111.307 7.368 110.983 7.288 110.631 7.216C110.287 7.144 109.967 7.048 109.671 6.928C109.375 6.808 109.127 6.648 108.927 6.448C108.727 6.24 108.627 5.952 108.627 5.584C108.627 5.28 108.691 5.02 108.819 4.804C108.955 4.588 109.131 4.412 109.347 4.276C109.563 4.132 109.815 4.028 110.103 3.964C110.391 3.892 110.691 3.856 111.003 3.856C111.563 3.856 112.043 3.928 112.443 4.072C112.851 4.208 113.175 4.352 113.415 4.504L113.031 5.26C112.767 5.116 112.479 4.98 112.167 4.852C111.863 4.716 111.479 4.648 111.015 4.648C110.839 4.648 110.663 4.668 110.487 4.708C110.319 4.74 110.163 4.792 110.019 4.864C109.883 4.936 109.771 5.032 109.683 5.152C109.603 5.264 109.563 5.404 109.563 5.572C109.563 5.78 109.663 5.94 109.863 6.052C110.063 6.164 110.311 6.26 110.607 6.34C110.903 6.412 111.223 6.484 111.567 6.556C111.919 6.62 112.243 6.716 112.539 6.844C112.835 6.972 113.083 7.144 113.283 7.36C113.483 7.576 113.583 7.868 113.583 8.236C113.583 8.788 113.363 9.244 112.923 9.604C112.491 9.964 111.839 10.144 110.967 10.144C110.703 10.144 110.443 10.12 110.187 10.072C109.931 10.024 109.691 9.96 109.467 9.88C109.243 9.8 109.039 9.712 108.855 9.616C108.671 9.512 108.519 9.408 108.399 9.304L108.879 8.524C108.975 8.62 109.103 8.72 109.263 8.824C109.423 8.92 109.599 9.008 109.791 9.088C109.983 9.168 110.187 9.232 110.403 9.28C110.627 9.328 110.851 9.352 111.075 9.352C111.291 9.352 111.491 9.336 111.675 9.304C111.867 9.264 112.035 9.208 112.179 9.136C112.323 9.056 112.435 8.956 112.515 8.836C112.603 8.708 112.647 8.556 112.647 8.38ZM119.854 4.924C119.67 4.86 119.47 4.808 119.254 4.768C119.046 4.72 118.838 4.696 118.63 4.696C117.846 4.696 117.262 4.88 116.878 5.248C116.494 5.616 116.302 6.2 116.302 7C116.302 7.352 116.358 7.668 116.47 7.948C116.582 8.22 116.742 8.452 116.95 8.644C117.158 8.836 117.406 8.984 117.694 9.088C117.99 9.192 118.314 9.244 118.666 9.244C119.042 9.244 119.406 9.18 119.758 9.052C120.118 8.924 120.418 8.756 120.658 8.548L121.078 9.244C120.966 9.34 120.826 9.44 120.658 9.544C120.49 9.648 120.294 9.748 120.07 9.844C119.854 9.932 119.61 10.004 119.338 10.06C119.074 10.116 118.786 10.144 118.474 10.144C117.954 10.144 117.494 10.072 117.094 9.928C116.702 9.776 116.374 9.564 116.11 9.292C115.846 9.012 115.646 8.68 115.51 8.296C115.374 7.904 115.306 7.472 115.306 7C115.306 6.496 115.374 6.048 115.51 5.656C115.654 5.264 115.858 4.936 116.122 4.672C116.386 4.408 116.706 4.208 117.082 4.072C117.458 3.928 117.878 3.856 118.342 3.856C118.934 3.856 119.414 3.908 119.782 4.012C120.158 4.116 120.474 4.232 120.73 4.36L120.718 4.396V6.064H119.854V4.924ZM123.209 1.6L125.201 1.6V7.984C125.201 8.472 125.281 8.816 125.441 9.016C125.609 9.216 125.853 9.316 126.173 9.316C126.397 9.316 126.609 9.276 126.809 9.196C127.017 9.116 127.245 8.98 127.493 8.788L127.925 9.448C127.797 9.56 127.657 9.66 127.505 9.748C127.353 9.836 127.197 9.912 127.037 9.976C126.877 10.032 126.717 10.076 126.557 10.108C126.397 10.14 126.249 10.156 126.113 10.156C125.817 10.156 125.553 10.116 125.321 10.036C125.089 9.964 124.893 9.844 124.733 9.676C124.581 9.508 124.465 9.288 124.385 9.016C124.305 8.736 124.265 8.392 124.265 7.984V2.404H123.209V1.6ZM130.273 4.468C130.617 4.268 131.005 4.124 131.437 4.036C131.869 3.948 132.293 3.904 132.709 3.904C133.117 3.904 133.449 3.968 133.705 4.096C133.969 4.224 134.173 4.392 134.317 4.6C134.469 4.8 134.569 5.032 134.617 5.296C134.673 5.552 134.701 5.812 134.701 6.076C134.701 6.38 134.693 6.704 134.677 7.048C134.661 7.392 134.649 7.736 134.641 8.08C134.641 8.48 134.665 8.86 134.713 9.22H135.517V10H133.921L133.813 9.1H133.753C133.705 9.172 133.633 9.264 133.537 9.376C133.441 9.488 133.313 9.6 133.153 9.712C133.001 9.816 132.813 9.908 132.589 9.988C132.365 10.068 132.101 10.108 131.797 10.108C131.205 10.108 130.737 9.956 130.393 9.652C130.049 9.348 129.877 8.932 129.877 8.404C129.877 7.996 129.965 7.656 130.141 7.384C130.325 7.112 130.585 6.904 130.921 6.76C131.257 6.616 131.661 6.532 132.133 6.508C132.613 6.484 133.149 6.516 133.741 6.604C133.781 6.236 133.785 5.932 133.753 5.692C133.729 5.444 133.665 5.248 133.561 5.104C133.465 4.96 133.325 4.86 133.141 4.804C132.965 4.74 132.745 4.708 132.481 4.708C132.121 4.708 131.777 4.76 131.449 4.864C131.121 4.96 130.829 5.06 130.573 5.164L130.273 4.468ZM132.037 9.304C132.261 9.304 132.469 9.268 132.661 9.196C132.853 9.124 133.021 9.032 133.165 8.92C133.309 8.808 133.429 8.688 133.525 8.56C133.621 8.424 133.693 8.296 133.741 8.176V7.336C133.325 7.264 132.941 7.228 132.589 7.228C132.237 7.228 131.933 7.268 131.677 7.348C131.421 7.42 131.221 7.536 131.077 7.696C130.933 7.856 130.861 8.064 130.861 8.32C130.861 8.584 130.949 8.816 131.125 9.016C131.309 9.208 131.613 9.304 132.037 9.304ZM141.428 8.38C141.428 8.124 141.328 7.928 141.128 7.792C140.928 7.648 140.68 7.536 140.384 7.456C140.088 7.368 139.764 7.288 139.412 7.216C139.068 7.144 138.748 7.048 138.452 6.928C138.156 6.808 137.908 6.648 137.708 6.448C137.508 6.24 137.408 5.952 137.408 5.584C137.408 5.28 137.472 5.02 137.6 4.804C137.736 4.588 137.912 4.412 138.128 4.276C138.344 4.132 138.596 4.028 138.884 3.964C139.172 3.892 139.472 3.856 139.784 3.856C140.344 3.856 140.824 3.928 141.224 4.072C141.632 4.208 141.956 4.352 142.196 4.504L141.812 5.26C141.548 5.116 141.26 4.98 140.948 4.852C140.644 4.716 140.26 4.648 139.796 4.648C139.62 4.648 139.444 4.668 139.268 4.708C139.1 4.74 138.944 4.792 138.8 4.864C138.664 4.936 138.552 5.032 138.464 5.152C138.384 5.264 138.344 5.404 138.344 5.572C138.344 5.78 138.444 5.94 138.644 6.052C138.844 6.164 139.092 6.26 139.388 6.34C139.684 6.412 140.004 6.484 140.348 6.556C140.7 6.62 141.024 6.716 141.32 6.844C141.616 6.972 141.864 7.144 142.064 7.36C142.264 7.576 142.364 7.868 142.364 8.236C142.364 8.788 142.144 9.244 141.704 9.604C141.272 9.964 140.62 10.144 139.748 10.144C139.484 10.144 139.224 10.12 138.968 10.072C138.712 10.024 138.472 9.96 138.248 9.88C138.024 9.8 137.82 9.712 137.636 9.616C137.452 9.512 137.3 9.408 137.18 9.304L137.66 8.524C137.756 8.62 137.884 8.72 138.044 8.824C138.204 8.92 138.38 9.008 138.572 9.088C138.764 9.168 138.968 9.232 139.184 9.28C139.408 9.328 139.632 9.352 139.856 9.352C140.072 9.352 140.272 9.336 140.456 9.304C140.648 9.264 140.816 9.208 140.96 9.136C141.104 9.056 141.216 8.956 141.296 8.836C141.384 8.708 141.428 8.556 141.428 8.38ZM148.623 8.38C148.623 8.124 148.523 7.928 148.323 7.792C148.123 7.648 147.875 7.536 147.579 7.456C147.283 7.368 146.959 7.288 146.607 7.216C146.263 7.144 145.943 7.048 145.647 6.928C145.351 6.808 145.103 6.648 144.903 6.448C144.703 6.24 144.603 5.952 144.603 5.584C144.603 5.28 144.667 5.02 144.795 4.804C144.931 4.588 145.107 4.412 145.323 4.276C145.539 4.132 145.791 4.028 146.079 3.964C146.367 3.892 146.667 3.856 146.979 3.856C147.539 3.856 148.019 3.928 148.419 4.072C148.827 4.208 149.151 4.352 149.391 4.504L149.007 5.26C148.743 5.116 148.455 4.98 148.143 4.852C147.839 4.716 147.455 4.648 146.991 4.648C146.815 4.648 146.639 4.668 146.463 4.708C146.295 4.74 146.139 4.792 145.995 4.864C145.859 4.936 145.747 5.032 145.659 5.152C145.579 5.264 145.539 5.404 145.539 5.572C145.539 5.78 145.639 5.94 145.839 6.052C146.039 6.164 146.287 6.26 146.583 6.34C146.879 6.412 147.199 6.484 147.543 6.556C147.895 6.62 148.219 6.716 148.515 6.844C148.811 6.972 149.059 7.144 149.259 7.36C149.459 7.576 149.559 7.868 149.559 8.236C149.559 8.788 149.339 9.244 148.899 9.604C148.467 9.964 147.815 10.144 146.943 10.144C146.679 10.144 146.419 10.12 146.163 10.072C145.907 10.024 145.667 9.96 145.443 9.88C145.219 9.8 145.015 9.712 144.831 9.616C144.647 9.512 144.495 9.408 144.375 9.304L144.855 8.524C144.951 8.62 145.079 8.72 145.239 8.824C145.399 8.92 145.575 9.008 145.767 9.088C145.959 9.168 146.163 9.232 146.379 9.28C146.603 9.328 146.827 9.352 147.051 9.352C147.267 9.352 147.467 9.336 147.651 9.304C147.843 9.264 148.011 9.208 148.155 9.136C148.299 9.056 148.411 8.956 148.491 8.836C148.579 8.708 148.623 8.556 148.623 8.38ZM151.823 10V9.196L153.911 9.196V4.804H151.823V4H154.871V9.196H156.911V10L151.823 10ZM153.587 2.296C153.587 2.08 153.659 1.896 153.803 1.744C153.947 1.584 154.131 1.504 154.355 1.504C154.587 1.504 154.779 1.584 154.931 1.744C155.091 1.896 155.171 2.08 155.171 2.296C155.171 2.504 155.091 2.68 154.931 2.824C154.779 2.968 154.587 3.04 154.355 3.04C154.131 3.04 153.947 2.968 153.803 2.824C153.659 2.68 153.587 2.504 153.587 2.296ZM158.814 10V9.196H160.242V4.804H158.814V4H160.242V3.664C160.242 2.912 160.438 2.368 160.83 2.032C161.222 1.696 161.782 1.528 162.51 1.528C162.774 1.528 163.01 1.544 163.218 1.576C163.426 1.608 163.65 1.672 163.89 1.768L163.674 2.548C163.466 2.46 163.266 2.404 163.074 2.38C162.882 2.348 162.706 2.332 162.546 2.332C162.018 2.332 161.658 2.464 161.466 2.728C161.274 2.984 161.178 3.408 161.178 4L163.662 4V4.804L161.178 4.804V9.196H163.662V10H158.814ZM166.213 10V9.196H168.301V4.804L166.213 4.804V4L169.261 4V9.196H171.301V10H166.213ZM167.977 2.296C167.977 2.08 168.049 1.896 168.193 1.744C168.337 1.584 168.521 1.504 168.745 1.504C168.977 1.504 169.169 1.584 169.321 1.744C169.481 1.896 169.561 2.08 169.561 2.296C169.561 2.504 169.481 2.68 169.321 2.824C169.169 2.968 168.977 3.04 168.745 3.04C168.521 3.04 168.337 2.968 168.193 2.824C168.049 2.68 167.977 2.504 167.977 2.296ZM178.496 9.244C178.352 9.372 178.18 9.492 177.98 9.604C177.788 9.716 177.576 9.812 177.344 9.892C177.112 9.972 176.868 10.032 176.612 10.072C176.364 10.12 176.112 10.144 175.856 10.144C175.376 10.144 174.952 10.072 174.584 9.928C174.216 9.776 173.908 9.564 173.66 9.292C173.412 9.012 173.224 8.68 173.096 8.296C172.968 7.912 172.904 7.48 172.904 7C172.904 6.496 172.972 6.048 173.108 5.656C173.252 5.264 173.456 4.936 173.72 4.672C173.984 4.408 174.304 4.208 174.68 4.072C175.056 3.928 175.476 3.856 175.94 3.856C176.276 3.856 176.608 3.9 176.936 3.988C177.264 4.076 177.552 4.244 177.8 4.492C178.056 4.732 178.252 5.068 178.388 5.5C178.524 5.924 178.572 6.476 178.532 7.156H173.888C173.888 7.876 174.08 8.416 174.464 8.776C174.856 9.128 175.376 9.304 176.024 9.304C176.24 9.304 176.452 9.28 176.66 9.232C176.876 9.176 177.08 9.112 177.272 9.04C177.464 8.968 177.632 8.888 177.776 8.8C177.928 8.712 178.044 8.632 178.124 8.56L178.496 9.244ZM175.964 4.648C175.7 4.648 175.448 4.676 175.208 4.732C174.976 4.788 174.768 4.884 174.584 5.02C174.408 5.148 174.26 5.32 174.14 5.536C174.028 5.744 173.956 6.004 173.924 6.316H177.656C177.616 5.788 177.444 5.38 177.14 5.092C176.844 4.796 176.452 4.648 175.964 4.648ZM183.532 1.6L185.476 1.6V7.948C185.476 8.02 185.48 8.112 185.488 8.224C185.496 8.328 185.504 8.44 185.512 8.56C185.528 8.68 185.544 8.8 185.56 8.92C185.576 9.032 185.592 9.132 185.608 9.22H186.412V10H184.816L184.696 9.076H184.648C184.472 9.38 184.208 9.636 183.856 9.844C183.512 10.044 183.112 10.144 182.656 10.144C181.752 10.144 181.084 9.892 180.652 9.388C180.228 8.876 180.016 8.084 180.016 7.012C180.016 6.508 180.088 6.064 180.232 5.68C180.376 5.288 180.58 4.964 180.844 4.708C181.116 4.444 181.44 4.244 181.816 4.108C182.192 3.972 182.612 3.904 183.076 3.904C183.244 3.904 183.392 3.908 183.52 3.916C183.656 3.924 183.78 3.936 183.892 3.952C184.004 3.968 184.108 3.992 184.204 4.024C184.308 4.048 184.42 4.076 184.54 4.108V2.404H183.532V1.6ZM182.812 9.34C183.3 9.34 183.684 9.216 183.964 8.968C184.244 8.712 184.436 8.332 184.54 7.828V5.044C184.364 4.924 184.164 4.836 183.94 4.78C183.724 4.724 183.436 4.696 183.076 4.696C182.436 4.696 181.932 4.884 181.564 5.26C181.196 5.628 181.012 6.212 181.012 7.012C181.012 7.34 181.04 7.648 181.096 7.936C181.16 8.216 181.26 8.46 181.396 8.668C181.54 8.876 181.728 9.04 181.96 9.16C182.192 9.28 182.476 9.34 182.812 9.34Z" fill="#F21A1A"/>
<path d="M216.404 1.6L221.216 1.6V2.488L217.4 2.488V5.356L220.976 5.356V6.244L217.4 6.244V10H216.404V1.6ZM224.547 4.744L223.899 3.532H223.851L223.971 4.744V10H223.035V1.6H223.683L227.067 6.832L227.691 7.984H227.751L227.619 6.832V1.6L228.555 1.6V10H227.907L224.547 4.744Z" fill="#343434"/>
<path d="M1.404 217.6H6.216V218.488H2.4L2.4 221.356H5.976V222.244H2.4L2.4 226H1.404L1.404 217.6ZM8.39531 217.684C8.69931 217.612 9.02731 217.564 9.37931 217.54C9.73131 217.516 10.0793 217.504 10.4233 217.504C10.7913 217.504 11.1633 217.54 11.5393 217.612C11.9233 217.684 12.2713 217.816 12.5833 218.008C12.8953 218.2 13.1473 218.464 13.3393 218.8C13.5393 219.136 13.6393 219.564 13.6393 220.084C13.6393 220.596 13.5473 221.028 13.3633 221.38C13.1793 221.732 12.9353 222.02 12.6313 222.244C12.3273 222.46 11.9793 222.616 11.5873 222.712C11.1953 222.808 10.7913 222.856 10.3753 222.856C10.3353 222.856 10.2673 222.856 10.1713 222.856C10.0833 222.856 9.98731 222.856 9.88331 222.856C9.78731 222.848 9.69131 222.84 9.59531 222.832C9.49931 222.824 9.43131 222.816 9.39131 222.808V226H8.39531L8.39531 217.684ZM10.4473 218.368C10.2393 218.368 10.0393 218.372 9.84731 218.38C9.65531 218.388 9.50331 218.408 9.39131 218.44L9.39131 221.92C9.43131 221.936 9.49531 221.948 9.58331 221.956C9.67131 221.956 9.76331 221.96 9.85931 221.968C9.95531 221.968 10.0473 221.968 10.1353 221.968C10.2233 221.968 10.2873 221.968 10.3273 221.968C10.5993 221.968 10.8673 221.944 11.1313 221.896C11.4033 221.84 11.6473 221.744 11.8633 221.608C12.0793 221.472 12.2513 221.28 12.3793 221.032C12.5153 220.784 12.5833 220.468 12.5833 220.084C12.5833 219.756 12.5193 219.484 12.3913 219.268C12.2713 219.044 12.1073 218.868 11.8993 218.74C11.6993 218.604 11.4713 218.508 11.2153 218.452C10.9593 218.396 10.7033 218.368 10.4473 218.368Z" fill="#343434"/>
<defs>
<filter id="filter0_d_1691_194" x="31" y="28" width="217" height="217" filterUnits="userSpaceOnUse" color-interpolation-filters="sRGB">
<feFlood flood-opacity="0" result="BackgroundImageFix"/>
<feColorMatrix in="SourceAlpha" type="matrix" values="0 0 0 0 0 0 0 0 0 0 0 0 0 0 0 0 0 0 127 0" result="hardAlpha"/>
<feOffset dy="2"/>
<feGaussianBlur stdDeviation="3"/>
<feComposite in2="hardAlpha" operator="out"/>
<feColorMatrix type="matrix" values="0 0 0 0 0 0 0 0 0 0 0 0 0 0 0 0 0 0 0.15 0"/>
<feBlend mode="normal" in2="BackgroundImageFix" result="effect1_dropShadow_1691_194"/>
<feBlend mode="normal" in="SourceGraphic" in2="effect1_dropShadow_1691_194" result="shape"/>
</filter>
<linearGradient id="paint0_linear_1691_194" x1="36" y1="279.818" x2="247.008" y2="290.531" gradientUnits="userSpaceOnUse">
<stop stop-color="#ECEEED"/>
<stop offset="0.520833" stop-color="#89E3D7"/>
<stop offset="1" stop-color="#AF7FF6"/>
</linearGradient>
</defs>
</svg>
