<svg width="418" height="335" viewBox="0 0 418 335" fill="none" xmlns="http://www.w3.org/2000/svg">
<line x1="138.713" y1="-7.48881e-08" x2="138.713" y2="308" stroke="url(#paint0_linear_1691_136)" stroke-width="3.42648"/>
<line x1="265.713" y1="-7.48881e-08" x2="265.713" y2="322" stroke="url(#paint1_linear_1691_136)" stroke-width="3.42648"/>
<line x1="37.4788" y1="110.977" x2="417.818" y2="110.977" stroke="url(#paint2_linear_1691_136)" stroke-width="3.42648"/>
<line x1="37.4788" y1="244.61" x2="417.818" y2="244.61" stroke="url(#paint3_linear_1691_136)" stroke-width="3.42648"/>
<g opacity="0.75">
<circle cx="317.811" cy="272.392" r="6.86774" transform="rotate(-75 317.811 272.392)" fill="white" stroke="#E5E7EB" stroke-width="2.56986"/>
<circle cx="339.188" cy="255.612" r="6.86774" transform="rotate(-75 339.188 255.612)" fill="white" stroke="#E5E7EB" stroke-width="2.56986"/>
<circle cx="334.076" cy="285.19" r="6.86774" transform="rotate(-75 334.076 285.19)" fill="white" stroke="#E5E7EB" stroke-width="2.56986"/>
<circle cx="362.624" cy="273.145" r="6.86774" transform="rotate(-75 362.624 273.145)" fill="white" stroke="#E5E7EB" stroke-width="2.56986"/>
<circle cx="312.373" cy="282.188" r="6.86774" transform="rotate(-75 312.373 282.188)" fill="#EDA4A2" stroke="#E5E7EB" stroke-width="2.56986"/>
<circle cx="290.571" cy="285.9" r="6.86774" transform="rotate(-61.8398 290.571 285.9)" fill="white" stroke="#E5E7EB" stroke-width="2.56986"/>
<circle cx="282.845" cy="234.888" r="6.86774" transform="rotate(-75 282.845 234.888)" fill="white" stroke="#E5E7EB" stroke-width="2.56986"/>
<circle cx="358.969" cy="255.286" r="6.86774" transform="rotate(-75 358.969 255.286)" fill="#F0C4C3" stroke="#E5E7EB" stroke-width="2.56986"/>
<circle cx="326.251" cy="240.892" r="6.86774" transform="rotate(-75 326.251 240.892)" fill="white" stroke="#E5E7EB" stroke-width="2.56986"/>
<circle cx="332.343" cy="270.658" r="6.86774" transform="rotate(-75 332.343 270.658)" fill="white" stroke="#E5E7EB" stroke-width="2.56986"/>
<circle cx="318.703" cy="258.564" r="6.86774" transform="rotate(-75 318.703 258.564)" fill="#F0C4C3" stroke="#E5E7EB" stroke-width="2.56986"/>
<circle cx="351.986" cy="239.347" r="6.86774" transform="rotate(-75 351.986 239.347)" fill="white" stroke="#E5E7EB" stroke-width="2.56986"/>
<circle cx="305.064" cy="246.469" r="6.86774" transform="rotate(-75 305.064 246.469)" fill="white" stroke="#E5E7EB" stroke-width="2.56986"/>
<circle cx="329.906" cy="258.752" r="6.86774" transform="rotate(-75 329.906 258.752)" fill="#EDA4A2" stroke="#E5E7EB" stroke-width="2.56986"/>
</g>
<g opacity="0.6" filter="url(#filter0_d_1691_136)">
<circle cx="83.2691" cy="188.663" r="6.50253" fill="white" stroke="#E5E7EB" stroke-width="2.56986"/>
<circle cx="104.035" cy="204.239" r="6.50253" fill="white" stroke="#E5E7EB" stroke-width="2.56986"/>
<circle cx="83.2691" cy="227.601" r="6.50253" fill="white" stroke="#E5E7EB" stroke-width="2.56986"/>
<circle cx="80.6732" cy="209.43" r="6.50253" fill="white" stroke="#E5E7EB" stroke-width="2.56986"/>
<circle cx="65.0981" cy="201.643" r="6.50253" fill="#8D2822" stroke="#E5E7EB" stroke-width="2.56986"/>
<circle cx="57.3108" cy="219.813" r="6.50253" fill="#EDA4A2" stroke="#E5E7EB" stroke-width="2.56986"/>
<circle cx="88.4607" cy="206.834" r="6.50253" fill="white" stroke="#E5E7EB" stroke-width="2.56986"/>
<circle cx="109.227" cy="186.068" r="6.50253" fill="white" stroke="#E5E7EB" stroke-width="2.56986"/>
<circle cx="91.0564" cy="222.409" r="6.50253" fill="white" stroke="#E5E7EB" stroke-width="2.56986"/>
<circle cx="101.44" cy="165.301" r="6.50253" fill="#F0C4C3" stroke="#E5E7EB" stroke-width="2.56986"/>
<circle cx="124.802" cy="230.197" r="6.50253" fill="#F0C4C3" stroke="#E5E7EB" stroke-width="2.56986"/>
<circle cx="101.44" cy="217.217" r="6.50253" fill="white" stroke="#E5E7EB" stroke-width="2.56986"/>
<circle cx="111.823" cy="232.792" r="6.50253" fill="white" stroke="#E5E7EB" stroke-width="2.56986"/>
<circle cx="96.2482" cy="212.026" r="6.50253" fill="#991B1B" stroke="#E5E7EB" stroke-width="2.56986"/>
<circle cx="127.398" cy="209.43" r="6.50253" fill="white" stroke="#E5E7EB" stroke-width="2.56986"/>
<circle cx="132.59" cy="235.388" r="6.50253" fill="#991B1B" stroke="#E5E7EB" stroke-width="2.56986"/>
<circle cx="67.6937" cy="217.217" r="6.50253" fill="#EDA4A2" stroke="#E5E7EB" stroke-width="2.56986"/>
<circle cx="52.1192" cy="225.005" r="6.50253" fill="#8D2822" stroke="#E5E7EB" stroke-width="2.56986"/>
</g>
<g filter="url(#filter1_d_1691_136)">
<circle cx="225.935" cy="130.381" r="8.99451" fill="white" stroke="#E5E7EB" stroke-width="2.56986"/>
<circle cx="236.215" cy="126.955" r="8.99451" fill="white" stroke="#E5E7EB" stroke-width="2.56986"/>
<circle cx="232.788" cy="123.528" r="8.99451" fill="white" stroke="#E5E7EB" stroke-width="2.56986"/>
<circle cx="219.082" cy="123.528" r="8.99451" fill="white" stroke="#E5E7EB" stroke-width="2.56986"/>
<circle cx="150.553" cy="89.2636" r="8.99451" fill="#8D2822" stroke="#E5E7EB" stroke-width="2.56986"/>
<circle cx="164.258" cy="96.1166" r="8.99451" fill="#EDA4A2" stroke="#E5E7EB" stroke-width="2.56986"/>
<circle cx="198.523" cy="85.8371" r="8.99451" fill="white" stroke="#E5E7EB" stroke-width="2.56986"/>
<circle cx="267.053" cy="85.8371" r="8.99451" fill="#8D2822" stroke="#E5E7EB" stroke-width="2.56986"/>
<circle cx="253.347" cy="130.381" r="8.99451" fill="white" stroke="#E5E7EB" stroke-width="2.56986"/>
<circle cx="184.817" cy="164.646" r="8.99451" fill="#8D2822" stroke="#E5E7EB" stroke-width="2.56986"/>
<circle cx="212.229" cy="157.793" r="8.99451" fill="#EDA4A2" stroke="#E5E7EB" stroke-width="2.56986"/>
<circle cx="177.964" cy="116.675" r="8.99451" fill="white" stroke="#E5E7EB" stroke-width="2.56986"/>
<circle cx="177.964" cy="48.1458" r="8.99451" fill="#F0C4C3" stroke="#E5E7EB" stroke-width="2.56986"/>
<circle cx="225.935" cy="106.396" r="8.99451" fill="#F0C4C3" stroke="#E5E7EB" stroke-width="2.56986"/>
<circle cx="191.67" cy="140.661" r="8.99451" fill="white" stroke="#E5E7EB" stroke-width="2.56986"/>
<circle cx="198.523" cy="126.955" r="8.99451" fill="white" stroke="#E5E7EB" stroke-width="2.56986"/>
<circle cx="215.656" cy="144.087" r="8.99451" fill="#991B1B" stroke="#E5E7EB" stroke-width="2.56986"/>
<circle cx="246.494" cy="161.22" r="8.99451" fill="#EDA4A2" stroke="#E5E7EB" stroke-width="2.56986"/>
<circle cx="246.494" cy="137.234" r="8.99451" fill="#8D2822" stroke="#E5E7EB" stroke-width="2.56986"/>
<circle cx="246.494" cy="102.969" r="8.99451" fill="white" stroke="#E5E7EB" stroke-width="2.56986"/>
<circle cx="212.229" cy="109.822" r="8.99451" fill="#991B1B" stroke="#E5E7EB" stroke-width="2.56986"/>
</g>
<path d="M7.50241 301.977C7.50241 302.219 7.46974 302.462 7.40441 302.705C7.34841 302.947 7.25041 303.171 7.11041 303.377C6.97041 303.573 6.78841 303.75 6.56441 303.909C6.34041 304.058 6.06974 304.17 5.75241 304.245V304.329C6.03241 304.375 6.29841 304.455 6.55041 304.567C6.80241 304.679 7.02174 304.833 7.20841 305.029C7.39507 305.225 7.53974 305.463 7.64241 305.743C7.75441 306.023 7.81041 306.354 7.81041 306.737C7.81041 307.241 7.70307 307.679 7.48841 308.053C7.27374 308.417 6.98441 308.715 6.62041 308.949C6.26574 309.182 5.85974 309.355 5.40241 309.467C4.94507 309.579 4.47374 309.635 3.98841 309.635C3.82974 309.635 3.62441 309.635 3.37241 309.635C3.12974 309.635 2.86374 309.625 2.57441 309.607C2.29441 309.597 2.00507 309.579 1.70641 309.551C1.41707 309.523 1.15107 309.481 0.908405 309.425V299.765C1.08574 299.737 1.28641 299.709 1.51041 299.681C1.74374 299.653 1.99107 299.629 2.25241 299.611C2.51374 299.592 2.77974 299.578 3.05041 299.569C3.33041 299.559 3.60574 299.555 3.87641 299.555C4.33374 299.555 4.77707 299.592 5.20641 299.667C5.64507 299.732 6.03241 299.853 6.36841 300.031C6.71374 300.208 6.98907 300.455 7.19441 300.773C7.39974 301.09 7.50241 301.491 7.50241 301.977ZM4.00241 308.053C4.23574 308.053 4.45974 308.025 4.67441 307.969C4.89841 307.913 5.09441 307.829 5.26241 307.717C5.43041 307.595 5.56574 307.446 5.66841 307.269C5.77107 307.091 5.82241 306.881 5.82241 306.639C5.82241 306.331 5.76174 306.088 5.64041 305.911C5.51907 305.733 5.36041 305.598 5.16441 305.505C4.96841 305.402 4.74907 305.337 4.50641 305.309C4.26374 305.281 4.02107 305.267 3.77841 305.267H2.75641V307.969C2.80307 307.987 2.87774 308.001 2.98041 308.011C3.08307 308.02 3.19041 308.029 3.30241 308.039C3.42374 308.039 3.54507 308.043 3.66641 308.053C3.79707 308.053 3.90907 308.053 4.00241 308.053ZM3.37241 303.811C3.50307 303.811 3.65241 303.806 3.82041 303.797C3.99774 303.787 4.14241 303.773 4.25441 303.755C4.60907 303.643 4.91241 303.475 5.16441 303.251C5.42574 303.027 5.55641 302.733 5.55641 302.369C5.55641 302.126 5.50974 301.925 5.41641 301.767C5.32307 301.608 5.19707 301.482 5.03841 301.389C4.88907 301.295 4.71641 301.23 4.52041 301.193C4.32441 301.155 4.11907 301.137 3.90441 301.137C3.66174 301.137 3.43774 301.141 3.23241 301.151C3.02707 301.16 2.86841 301.174 2.75641 301.193V303.811H3.37241ZM9.69494 302.971C10.0683 302.803 10.4976 302.658 10.9829 302.537C11.4776 302.415 12.0609 302.355 12.7329 302.355C13.2183 302.355 13.6289 302.415 13.9649 302.537C14.3103 302.649 14.5856 302.812 14.7909 303.027C15.0056 303.241 15.1596 303.498 15.2529 303.797C15.3463 304.095 15.3929 304.431 15.3929 304.805C15.3929 305.281 15.3743 305.687 15.3369 306.023C15.3089 306.359 15.2949 306.657 15.2949 306.919C15.2949 307.115 15.3043 307.334 15.3229 307.577C15.3416 307.707 15.3556 307.833 15.3649 307.955H16.2749V309.495H13.9509L13.7689 308.543H13.6989C13.5123 308.832 13.2463 309.084 12.9009 309.299C12.5556 309.504 12.0889 309.607 11.5009 309.607C10.8009 309.607 10.2456 309.42 9.83494 309.047C9.42427 308.673 9.21894 308.179 9.21894 307.563C9.21894 307.171 9.28894 306.835 9.42894 306.555C9.57827 306.265 9.78827 306.032 10.0589 305.855C10.3389 305.668 10.6703 305.533 11.0529 305.449C11.4449 305.355 11.8789 305.309 12.3549 305.309C12.5229 305.309 12.7003 305.318 12.8869 305.337C13.0736 305.355 13.3023 305.374 13.5729 305.393C13.5916 305.299 13.6009 305.206 13.6009 305.113V304.847C13.6009 304.492 13.4983 304.24 13.2929 304.091C13.0876 303.932 12.7843 303.853 12.3829 303.853C11.9069 303.853 11.4776 303.913 11.0949 304.035C10.7123 304.156 10.3903 304.277 10.1289 304.399L9.69494 302.971ZM12.0889 308.109C12.5369 308.109 12.8729 308.029 13.0969 307.871C13.3209 307.703 13.4843 307.525 13.5869 307.339V306.499C13.4936 306.48 13.3536 306.461 13.1669 306.443C12.9803 306.415 12.7796 306.401 12.5649 306.401C12.3876 306.401 12.2103 306.419 12.0329 306.457C11.8556 306.485 11.6969 306.536 11.5569 306.611C11.4169 306.676 11.3049 306.765 11.2209 306.877C11.1369 306.989 11.0949 307.124 11.0949 307.283C11.0949 307.544 11.1696 307.749 11.3189 307.899C11.4776 308.039 11.7343 308.109 12.0889 308.109ZM21.1135 299.695H24.0395V305.743C24.0395 306.443 24.0768 307.133 24.1515 307.815C24.1515 307.861 24.1561 307.908 24.1655 307.955H25.0615V309.495H22.8075L22.6255 308.599H22.5695C22.4761 308.767 22.3501 308.916 22.1915 309.047C22.0328 309.177 21.8555 309.294 21.6595 309.397C21.4635 309.49 21.2488 309.56 21.0155 309.607C20.7821 309.663 20.5488 309.691 20.3155 309.691C19.8768 309.691 19.4615 309.621 19.0695 309.481C18.6868 309.341 18.3508 309.126 18.0615 308.837C17.7721 308.538 17.5435 308.165 17.3755 307.717C17.2075 307.259 17.1235 306.723 17.1235 306.107C17.1235 305.509 17.2121 304.977 17.3895 304.511C17.5761 304.044 17.8281 303.652 18.1455 303.335C18.4721 303.008 18.8548 302.761 19.2935 302.593C19.7321 302.415 20.2128 302.327 20.7355 302.327C21.0248 302.327 21.2955 302.345 21.5475 302.383C21.8088 302.411 22.0328 302.462 22.2195 302.537V301.235H21.1135V299.695ZM20.7355 308.151C21.0901 308.151 21.4028 308.067 21.6735 307.899C21.9535 307.721 22.1355 307.469 22.2195 307.143V304.175C22.0888 304.072 21.9068 303.997 21.6735 303.951C21.4495 303.895 21.2115 303.867 20.9595 303.867C20.7075 303.867 20.4601 303.909 20.2175 303.993C19.9841 304.077 19.7741 304.212 19.5875 304.399C19.4101 304.576 19.2655 304.809 19.1535 305.099C19.0508 305.388 18.9995 305.743 18.9995 306.163C18.9995 306.76 19.1488 307.241 19.4475 307.605C19.7461 307.969 20.1755 308.151 20.7355 308.151Z" fill="black"/>
<path d="M202.557 304.385H205.903V308.809C205.585 309.098 205.17 309.317 204.657 309.467C204.153 309.616 203.635 309.691 203.103 309.691C202.477 309.691 201.889 309.583 201.339 309.369C200.797 309.154 200.326 308.832 199.925 308.403C199.523 307.964 199.206 307.427 198.973 306.793C198.739 306.149 198.623 305.397 198.623 304.539C198.623 303.633 198.763 302.863 199.043 302.229C199.323 301.594 199.682 301.076 200.121 300.675C200.569 300.264 201.068 299.965 201.619 299.779C202.169 299.592 202.715 299.499 203.257 299.499C203.817 299.499 204.283 299.545 204.657 299.639C205.03 299.723 205.371 299.835 205.679 299.975V302.873H204.139V301.319C204.064 301.3 203.989 301.281 203.915 301.263C203.728 301.225 203.523 301.207 203.299 301.207C202.916 301.207 202.561 301.272 202.235 301.403C201.908 301.533 201.623 301.739 201.381 302.019C201.147 302.289 200.965 302.639 200.835 303.069C200.704 303.498 200.639 304.011 200.639 304.609C200.639 305.141 200.704 305.617 200.835 306.037C200.965 306.457 201.147 306.811 201.381 307.101C201.614 307.39 201.889 307.609 202.207 307.759C202.533 307.908 202.883 307.983 203.257 307.983C203.499 307.983 203.719 307.955 203.915 307.899C204.12 307.843 204.26 307.787 204.335 307.731V305.785H202.557V304.385ZM206.919 305.995C206.919 305.407 207.008 304.884 207.185 304.427C207.362 303.969 207.614 303.582 207.941 303.265C208.268 302.947 208.655 302.709 209.103 302.551C209.56 302.383 210.069 302.299 210.629 302.299C211.217 302.299 211.74 302.387 212.197 302.565C212.664 302.742 213.056 302.994 213.373 303.321C213.69 303.638 213.928 304.025 214.087 304.483C214.255 304.94 214.339 305.444 214.339 305.995C214.339 306.583 214.25 307.105 214.073 307.563C213.896 308.02 213.644 308.407 213.317 308.725C212.99 309.042 212.598 309.285 212.141 309.453C211.693 309.611 211.189 309.691 210.629 309.691C210.041 309.691 209.514 309.602 209.047 309.425C208.59 309.247 208.202 309 207.885 308.683C207.568 308.356 207.325 307.964 207.157 307.507C206.998 307.049 206.919 306.545 206.919 305.995ZM208.795 305.995C208.795 306.303 208.837 306.587 208.921 306.849C209.005 307.11 209.126 307.339 209.285 307.535C209.444 307.731 209.635 307.885 209.859 307.997C210.083 308.099 210.34 308.151 210.629 308.151C211.17 308.151 211.609 307.978 211.945 307.633C212.29 307.287 212.463 306.741 212.463 305.995C212.463 305.351 212.304 304.833 211.987 304.441C211.67 304.039 211.217 303.839 210.629 303.839C210.368 303.839 210.125 303.881 209.901 303.965C209.677 304.039 209.481 304.165 209.313 304.343C209.154 304.52 209.028 304.744 208.935 305.015C208.842 305.285 208.795 305.612 208.795 305.995ZM215.314 305.995C215.314 305.407 215.402 304.884 215.58 304.427C215.757 303.969 216.009 303.582 216.336 303.265C216.662 302.947 217.05 302.709 217.498 302.551C217.955 302.383 218.464 302.299 219.024 302.299C219.612 302.299 220.134 302.387 220.592 302.565C221.058 302.742 221.45 302.994 221.768 303.321C222.085 303.638 222.323 304.025 222.482 304.483C222.65 304.94 222.734 305.444 222.734 305.995C222.734 306.583 222.645 307.105 222.468 307.563C222.29 308.02 222.038 308.407 221.712 308.725C221.385 309.042 220.993 309.285 220.536 309.453C220.088 309.611 219.584 309.691 219.024 309.691C218.436 309.691 217.908 309.602 217.442 309.425C216.984 309.247 216.597 309 216.28 308.683C215.962 308.356 215.72 307.964 215.552 307.507C215.393 307.049 215.314 306.545 215.314 305.995ZM217.19 305.995C217.19 306.303 217.232 306.587 217.316 306.849C217.4 307.11 217.521 307.339 217.68 307.535C217.838 307.731 218.03 307.885 218.254 307.997C218.478 308.099 218.734 308.151 219.024 308.151C219.565 308.151 220.004 307.978 220.34 307.633C220.685 307.287 220.858 306.741 220.858 305.995C220.858 305.351 220.699 304.833 220.382 304.441C220.064 304.039 219.612 303.839 219.024 303.839C218.762 303.839 218.52 303.881 218.296 303.965C218.072 304.039 217.876 304.165 217.708 304.343C217.549 304.52 217.423 304.744 217.33 305.015C217.236 305.285 217.19 305.612 217.19 305.995ZM227.502 299.695H230.428V305.743C230.428 306.443 230.465 307.133 230.54 307.815C230.54 307.861 230.545 307.908 230.554 307.955H231.45V309.495H229.196L229.014 308.599H228.958C228.865 308.767 228.739 308.916 228.58 309.047C228.421 309.177 228.244 309.294 228.048 309.397C227.852 309.49 227.637 309.56 227.404 309.607C227.171 309.663 226.937 309.691 226.704 309.691C226.265 309.691 225.85 309.621 225.458 309.481C225.075 309.341 224.739 309.126 224.45 308.837C224.161 308.538 223.932 308.165 223.764 307.717C223.596 307.259 223.512 306.723 223.512 306.107C223.512 305.509 223.601 304.977 223.778 304.511C223.965 304.044 224.217 303.652 224.534 303.335C224.861 303.008 225.243 302.761 225.682 302.593C226.121 302.415 226.601 302.327 227.124 302.327C227.413 302.327 227.684 302.345 227.936 302.383C228.197 302.411 228.421 302.462 228.608 302.537V301.235H227.502V299.695ZM227.124 308.151C227.479 308.151 227.791 308.067 228.062 307.899C228.342 307.721 228.524 307.469 228.608 307.143V304.175C228.477 304.072 228.295 303.997 228.062 303.951C227.838 303.895 227.6 303.867 227.348 303.867C227.096 303.867 226.849 303.909 226.606 303.993C226.373 304.077 226.163 304.212 225.976 304.399C225.799 304.576 225.654 304.809 225.542 305.099C225.439 305.388 225.388 305.743 225.388 306.163C225.388 306.76 225.537 307.241 225.836 307.605C226.135 307.969 226.564 308.151 227.124 308.151Z" fill="black"/>
<rect x="42.6219" y="296.919" width="133.895" height="14.2442" fill="url(#paint4_linear_1691_136)"/>
<path d="M43.7843 285.582V284.697H45.3561V279.863H43.7843V278.978H45.3561V278.608C45.3561 277.78 45.5718 277.181 46.0033 276.812C46.4347 276.442 47.0511 276.257 47.8524 276.257C48.143 276.257 48.4028 276.274 48.6317 276.31C48.8606 276.345 49.1072 276.415 49.3714 276.521L49.1336 277.38C48.9047 277.283 48.6845 277.221 48.4732 277.195C48.2619 277.159 48.0681 277.142 47.892 277.142C47.3109 277.142 46.9146 277.287 46.7033 277.578C46.492 277.859 46.3863 278.326 46.3863 278.978H49.1204V279.863H46.3863V284.697H49.1204V285.582H43.7843ZM52.2192 284.631H54.2929V277.683L52.1796 279.163L51.6644 278.41L54.5702 276.336H55.3099V284.631H57.344V285.582H52.2192V284.631ZM76.6837 279.484C77.7698 280.673 78.731 281.443 79.5675 281.796V282.126C79.0979 282.331 78.643 282.61 78.2027 282.962C77.7771 283.314 77.2708 283.821 76.6837 284.481H76.1334C76.5737 283.557 77.036 282.845 77.5203 282.346H66.4033V281.619H77.5203C77.168 281.194 76.9186 280.871 76.7718 280.651C76.6397 280.416 76.4343 280.027 76.1554 279.484H76.6837Z" fill="black" fill-opacity="0.8"/>
<path d="M40.206 327.135C40.206 326.443 40.2781 325.839 40.4225 325.323C40.5668 324.798 40.7681 324.365 41.0264 324.024C41.2923 323.682 41.6076 323.427 41.9723 323.26C42.3369 323.085 42.7433 322.998 43.1916 322.998C44.1488 322.998 44.8857 323.336 45.4023 324.012C45.9188 324.681 46.1771 325.721 46.1771 327.135C46.1771 327.833 46.105 328.445 45.9606 328.969C45.8163 329.486 45.6112 329.919 45.3453 330.268C45.087 330.61 44.7717 330.868 44.3995 331.043C44.0348 331.21 43.6284 331.294 43.1802 331.294C42.2154 331.294 41.4785 330.941 40.9695 330.234C40.4605 329.52 40.206 328.487 40.206 327.135ZM44.7185 327.135C44.7185 327.013 44.7147 326.899 44.7071 326.793C44.7071 326.679 44.7033 326.569 44.6957 326.462L41.9039 329.003C42.1394 329.695 42.5686 330.04 43.1916 330.04C43.6778 330.04 44.0538 329.809 44.3197 329.345C44.5856 328.882 44.7185 328.145 44.7185 327.135ZM41.6646 327.135C41.6646 327.248 41.6646 327.359 41.6646 327.465C41.6722 327.564 41.6798 327.666 41.6874 327.773L44.4678 325.231C44.2399 324.578 43.8107 324.251 43.1802 324.251C42.694 324.251 42.3179 324.487 42.052 324.958C41.7937 325.421 41.6646 326.147 41.6646 327.135Z" fill="black" fill-opacity="0.8"/>
<path d="M173.452 329.881H175.195V324.901L173.691 326.052L173.007 325.14L175.605 323.158H176.608V329.881H178.317V331.134H173.452V329.881Z" fill="black" fill-opacity="0.8"/>
<path d="M43.334 311.163V316.861" stroke="black" stroke-opacity="0.5" stroke-width="1.42442"/>
<path d="M175.805 311.163V316.861" stroke="black" stroke-opacity="0.5" stroke-width="1.42442"/>
<defs>
<filter id="filter0_d_1691_136" x="37.4788" y="157.514" width="109.751" height="99.3679" filterUnits="userSpaceOnUse" color-interpolation-filters="sRGB">
<feFlood flood-opacity="0" result="BackgroundImageFix"/>
<feColorMatrix in="SourceAlpha" type="matrix" values="0 0 0 0 0 0 0 0 0 0 0 0 0 0 0 0 0 0 127 0" result="hardAlpha"/>
<feOffset dy="6.85296"/>
<feGaussianBlur stdDeviation="3.42648"/>
<feComposite in2="hardAlpha" operator="out"/>
<feColorMatrix type="matrix" values="0 0 0 0 0 0 0 0 0 0 0 0 0 0 0 0 0 0 0.15 0"/>
<feBlend mode="normal" in2="BackgroundImageFix" result="effect1_dropShadow_1691_136"/>
<feBlend mode="normal" in="SourceGraphic" in2="effect1_dropShadow_1691_136" result="shape"/>
</filter>
<filter id="filter1_d_1691_136" x="133.42" y="37.8663" width="150.765" height="150.765" filterUnits="userSpaceOnUse" color-interpolation-filters="sRGB">
<feFlood flood-opacity="0" result="BackgroundImageFix"/>
<feColorMatrix in="SourceAlpha" type="matrix" values="0 0 0 0 0 0 0 0 0 0 0 0 0 0 0 0 0 0 127 0" result="hardAlpha"/>
<feOffset dy="6.85296"/>
<feGaussianBlur stdDeviation="3.42648"/>
<feComposite in2="hardAlpha" operator="out"/>
<feColorMatrix type="matrix" values="0 0 0 0 0 0 0 0 0 0 0 0 0 0 0 0 0 0 0.05 0"/>
<feBlend mode="normal" in2="BackgroundImageFix" result="effect1_dropShadow_1691_136"/>
<feBlend mode="normal" in="SourceGraphic" in2="effect1_dropShadow_1691_136" result="shape"/>
</filter>
<linearGradient id="paint0_linear_1691_136" x1="137" y1="308" x2="137" y2="0" gradientUnits="userSpaceOnUse">
<stop offset="0.0727081" stop-color="#E5E7EB" stop-opacity="0"/>
<stop offset="0.260417" stop-color="#E5E7EB"/>
<stop offset="0.802083" stop-color="#E5E7EB"/>
<stop offset="0.953125" stop-color="#E5E7EB" stop-opacity="0"/>
</linearGradient>
<linearGradient id="paint1_linear_1691_136" x1="264" y1="322" x2="264" y2="0" gradientUnits="userSpaceOnUse">
<stop offset="0.0727081" stop-color="#E5E7EB" stop-opacity="0"/>
<stop offset="0.260417" stop-color="#E5E7EB"/>
<stop offset="0.802083" stop-color="#E5E7EB"/>
<stop offset="0.953125" stop-color="#E5E7EB" stop-opacity="0"/>
</linearGradient>
<linearGradient id="paint2_linear_1691_136" x1="417.818" y1="112.69" x2="37.4788" y2="112.69" gradientUnits="userSpaceOnUse">
<stop offset="0.0727081" stop-color="#E5E7EB" stop-opacity="0"/>
<stop offset="0.260417" stop-color="#E5E7EB"/>
<stop offset="0.802083" stop-color="#E5E7EB"/>
<stop offset="0.953125" stop-color="#E5E7EB" stop-opacity="0"/>
</linearGradient>
<linearGradient id="paint3_linear_1691_136" x1="417.818" y1="246.323" x2="37.4788" y2="246.323" gradientUnits="userSpaceOnUse">
<stop offset="0.0727081" stop-color="#E5E7EB" stop-opacity="0"/>
<stop offset="0.260417" stop-color="#E5E7EB"/>
<stop offset="0.802083" stop-color="#E5E7EB"/>
<stop offset="0.953125" stop-color="#E5E7EB" stop-opacity="0"/>
</linearGradient>
<linearGradient id="paint4_linear_1691_136" x1="42.6219" y1="306.631" x2="180.052" y2="309.815" gradientUnits="userSpaceOnUse">
<stop stop-color="#8F2A24"/>
<stop offset="0.520833" stop-color="#DA6D69"/>
<stop offset="1" stop-color="white"/>
</linearGradient>
</defs>
</svg>
